<svg xmlns="http://www.w3.org/2000/svg" version="1.1" xmlns:xlink="http://www.w3.org/1999/xlink" xmlns:svgjs="http://svgjs.dev/svgjs" width="1440" height="560" preserveAspectRatio="none" viewBox="0 0 1440 560"><g mask="url(&quot;#SvgjsMask1004&quot;)" fill="none"><rect width="1440" height="560" x="0" y="0" fill="url(&quot;#SvgjsLinearGradient1005&quot;)"></rect><path d="M0 0L635.94 0L0 66.33z" fill="rgba(255, 255, 255, .1)"></path><path d="M0 66.33L635.94 0L1052.5700000000002 0L0 100.44z" fill="rgba(255, 255, 255, .075)"></path><path d="M0 100.44L1052.5700000000002 0L1228.92 0L0 382.86z" fill="rgba(255, 255, 255, .05)"></path><path d="M0 382.86L1228.92 0L1261.0900000000001 0L0 428.15000000000003z" fill="rgba(255, 255, 255, .025)"></path><path d="M1440 560L1392.14 560L1440 286.29z" fill="rgba(0, 0, 0, .1)"></path><path d="M1440 286.29L1392.14 560L1338.94 560L1440 210.49z" fill="rgba(0, 0, 0, .075)"></path><path d="M1440 210.49L1338.94 560L1094.91 560L1440 190.49z" fill="rgba(0, 0, 0, .05)"></path><path d="M1440 190.49L1094.9099999999999 560L330.77999999999986 560L1440 143.54000000000002z" fill="rgba(0, 0, 0, .025)"></path></g><defs><mask id="SvgjsMask1004"><rect width="1440" height="560" fill="#ffffff"></rect></mask><linearGradient x1="15.28%" y1="-39.29%" x2="84.72%" y2="139.29%" gradientUnits="userSpaceOnUse" id="SvgjsLinearGradient1005"><stop stop-color="#0e2a47" offset="0"></stop><stop stop-color="#00459e" offset="1"></stop></linearGradient></defs></svg>